<svg width="38" height="37" viewBox="0 0 38 37" fill="none" xmlns="http://www.w3.org/2000/svg">
<path fill-rule="evenodd" clip-rule="evenodd" d="M17.792 37C19.7764 37 22.7218 36.8523 24.2305 36.0345C24.8466 35.7005 25.2531 34.8677 25.0215 33.9811C24.814 33.1872 24.1274 32.6447 23.1635 32.6447C22.9539 32.6447 20.275 33.3848 18.4445 33.3747C17.7038 33.3707 16.1505 33.1799 15.4386 33.0382C11.0704 32.1684 7.4545 29.3628 5.28351 25.4817C5.15225 25.247 5.02902 25.0022 4.92286 24.7535C3.51876 21.4646 3.10943 18.6421 3.88536 15.1087C4.65369 11.6099 6.97145 8.12849 9.90846 6.17852C12.1263 4.70606 13.9746 3.9379 16.6896 3.59579L18.4453 3.45918C19.1828 3.45918 21.0951 3.71276 21.754 3.85745C22.7391 4.07377 23.062 4.22386 23.9171 4.52527C24.2154 4.63039 24.2991 4.69871 24.5734 4.81263C25.5424 5.21502 27.2529 6.24553 28.0088 6.96658L28.9888 7.87389C30.1793 9.06444 31.3511 10.6063 32.05 12.2892C32.1639 12.5636 32.2322 12.6472 32.3374 12.9455C33.3105 15.7063 33.7034 18.1457 33.1271 21.1221C32.3691 25.0369 30.6401 26.6117 30.6401 27.5635C30.6401 28.3345 31.1308 29.0154 31.7042 29.2578C33.1868 29.8849 33.9262 28.8566 34.5102 27.8042C36.0242 25.0761 36.8853 22.1435 37.0279 19.1819V17.4247C36.9161 15.1195 36.3621 12.8177 35.3345 10.6017C34.5253 8.8566 33.8586 7.96781 32.7043 6.48117C32.0825 5.6804 31.1946 4.85003 30.4057 4.20671C28.624 2.75382 26.788 1.7401 24.5716 0.967272C24.0043 0.769496 23.4155 0.615073 22.8158 0.472804C19.9395 -0.209645 16.5832 -0.157814 13.7515 0.65763C13.4061 0.757039 13.1806 0.827474 12.8652 0.932782C12.5903 1.02456 12.2885 1.11539 11.9952 1.22423C11.7289 1.32309 11.4312 1.46196 11.176 1.56639C8.90846 2.49428 7.6275 3.55217 5.97765 5.0061C5.83352 5.13312 5.7965 5.1343 5.65212 5.26125C5.19165 5.66608 3.89979 7.25287 3.54348 7.72569C2.85966 8.63314 2.38058 9.5425 1.84657 10.6019C0.673415 12.9293 0.455279 14.5373 0.110542 16.9231C0.0561594 17.2995 0.111201 17.665 0.0605771 18.0346C-0.240286 20.2312 0.636291 23.6836 1.43867 25.6971C1.86523 26.7676 2.40978 27.7922 3.01304 28.6958L5.5779 31.8654C5.80611 32.0948 5.96451 32.1793 6.19562 32.4091C6.39096 32.6035 6.62281 32.7723 6.83113 32.935C8.07244 33.9048 8.8807 34.4445 10.3869 35.1864L11.9759 35.8476C12.2707 35.9449 12.4923 36.0568 12.8295 36.1554C14.3765 36.6076 16.0057 37 17.792 37Z" fill="#BDBFC1"/>
<path fill-rule="evenodd" clip-rule="evenodd" d="M16.6306 9.41641V21.2483C16.6306 22.1487 17.4181 22.9179 18.5904 22.9179C19.4295 22.9179 20.26 22.0792 20.26 21.2483V9.41641C20.26 8.50238 19.473 7.74689 18.3001 7.74689C17.4692 7.74689 16.6306 8.57731 16.6306 9.41641Z" fill="#BDBFC1"/>
<path fill-rule="evenodd" clip-rule="evenodd" d="M16.6306 27.128C16.6306 29.752 20.26 29.752 20.26 27.128C20.26 26.2277 19.4724 25.4585 18.3001 25.4585C17.4728 25.4585 16.6306 26.3007 16.6306 27.128Z" fill="#BDBFC1"/>
</svg>
